<svg width="34" height="24" viewBox="0 0 34 24" fill="none" xmlns="http://www.w3.org/2000/svg">
<path fill-rule="evenodd" clip-rule="evenodd" d="M0 1.875C0 0.839466 0.839466 0 1.875 0H31.875C32.9105 0 33.75 0.839466 33.75 1.875C33.75 2.91053 32.9105 3.75 31.875 3.75H1.875C0.839466 3.75 0 2.91053 0 1.875ZM0 11.875C0 10.8395 0.839466 10 1.875 10H31.875C32.9105 10 33.75 10.8395 33.75 11.875C33.75 12.9105 32.9105 13.75 31.875 13.75H1.875C0.839466 13.75 0 12.9105 0 11.875ZM0 21.875C0 20.8395 0.839466 20 1.875 20H31.875C32.9105 20 33.75 20.8395 33.75 21.875C33.75 22.9105 32.9105 23.75 31.875 23.75H1.875C0.839466 23.75 0 22.9105 0 21.875Z" fill="#007DFC"/>
</svg>
