<svg width="29" height="14" viewBox="0 0 29 14" fill="none" xmlns="http://www.w3.org/2000/svg">
<path d="M27.5405 4.50276V3.23587C27.5405 1.45375 26.1745 0 24.4907 0H3.04982C1.36605 0 0 1.45372 0 3.23587V10.7641C0 12.5462 1.36601 14 3.04982 14H24.4893C26.173 14 27.5391 12.5463 27.5391 10.7641V9.40383C28.392 9.04915 29 8.16758 29 7.14004V6.7664C29 5.73886 28.3906 4.85728 27.5391 4.50261L27.5405 4.50276ZM25.7797 10.7659C25.7797 11.5204 25.2019 12.1335 24.4907 12.1335L3.04982 12.132C2.33862 12.132 1.76082 11.519 1.76082 10.7644V3.23613C1.76082 2.48154 2.33859 1.8685 3.04982 1.8685H24.4893C25.2005 1.8685 25.7783 2.48151 25.7783 3.23613V10.7644L25.7797 10.7659Z" fill="#34AF6F"/>
<path d="M23.2294 3.5H4.70592C4.31774 3.5 4 3.78045 4 4.1324V9.8648C4 10.2168 4.31618 10.5 4.70592 10.5H23.2306C23.6188 10.5 23.9365 10.2168 23.9365 9.8648V4.1324C23.9365 3.78044 23.6191 3.5 23.2294 3.5Z" fill="#34AF6F"/>
</svg>
