<svg width="24" height="26" viewBox="0 0 24 26" fill="none" xmlns="http://www.w3.org/2000/svg">
<path d="M17.1243 17.3757C17.298 17.3757 17.4515 17.3555 17.5883 17.323C17.5401 18.4 17.298 19.4579 16.8901 20.4342C16.6323 20.3893 16.4743 20.2649 16.277 20.0991C15.9901 19.8648 15.6315 19.5746 14.9613 19.5746C14.2878 19.5746 13.9325 19.8648 13.6456 20.0991C13.3879 20.3086 13.2063 20.4577 12.7939 20.4577C12.3859 20.4577 12.201 20.3086 11.9466 20.0991C11.6597 19.8648 11.3056 19.5746 10.6309 19.5746C10.4292 19.5746 10.2633 19.7404 10.2633 19.9455C10.2633 20.1473 10.4292 20.3131 10.6309 20.3131C11.0389 20.3131 11.2238 20.4622 11.4782 20.6717C11.7651 20.906 12.1192 21.1962 12.7939 21.1962C13.4674 21.1962 13.8227 20.906 14.1096 20.6717C14.3673 20.4622 14.5489 20.3131 14.9613 20.3131C15.3693 20.3131 15.5542 20.4622 15.8086 20.6717C16.0058 20.8331 16.2367 21.0192 16.5752 21.1156C15.3805 23.4444 13.1975 25.2352 10.3609 25.6959C9.85766 25.7811 9.341 25.8215 8.81204 25.8215C8.28308 25.8215 7.76307 25.7811 7.25425 25.6959C1.36701 24.74 -1.70371 18.0853 0.979402 12.7595L6.77799 1.251C7.61741 -0.419981 10.0022 -0.415505 10.8417 1.25548L16.5751 12.6834C16.4743 12.6229 16.3813 12.5467 16.277 12.4615C15.9901 12.2272 15.6315 11.937 14.9613 11.937C14.2877 11.937 13.9325 12.2273 13.6456 12.4615C13.3878 12.6677 13.2063 12.8201 12.7938 12.8201C12.3859 12.8201 12.201 12.6666 11.9466 12.4615C11.6597 12.2272 11.3055 11.937 10.6309 11.937C10.4292 11.937 10.2633 12.0984 10.2633 12.3046C10.2633 12.5063 10.4292 12.6722 10.6309 12.6722C11.0388 12.6722 11.2237 12.8257 11.4781 13.0308C11.765 13.265 12.1192 13.5553 12.7938 13.5553C13.4674 13.5553 13.8226 13.265 14.1096 13.0308C14.3673 12.8246 14.5489 12.6722 14.9613 12.6722C15.3693 12.6722 15.5542 12.8257 15.8086 13.0308C16.0708 13.2448 16.3981 13.5071 16.9663 13.5474C17.354 14.5325 17.5558 15.5412 17.5916 16.5453C17.4661 16.6013 17.3215 16.6383 17.1232 16.6383C16.7152 16.6383 16.5303 16.4892 16.2759 16.2797C15.989 16.0499 15.6304 15.7552 14.9602 15.7552C14.2867 15.7552 13.9314 16.0499 13.6445 16.2797C13.3867 16.4892 13.2052 16.6383 12.7928 16.6383C12.3848 16.6383 12.1999 16.4892 11.9455 16.2797C11.6586 16.0499 11.3044 15.7552 10.6298 15.7552C10.4281 15.7552 10.2622 15.921 10.2622 16.1261C10.2622 16.3279 10.4281 16.4937 10.6298 16.4937C11.0377 16.4937 11.2227 16.6473 11.477 16.8524C11.764 17.0866 12.1181 17.3768 12.7928 17.3768C13.4663 17.3768 13.8216 17.0866 14.1085 16.8524C14.3662 16.6461 14.5478 16.4937 14.9602 16.4937C15.3682 16.4937 15.5531 16.6473 15.8075 16.8524C16.0955 17.0855 16.4552 17.3757 17.1243 17.3757ZM23.6335 11.9357C22.96 11.9357 22.6002 12.226 22.3144 12.4602C22.06 12.6664 21.8751 12.8188 21.4627 12.8188C21.0514 12.8188 20.8654 12.6653 20.6109 12.4602C20.324 12.226 19.9654 11.9357 19.2918 11.9357C18.6217 11.9357 18.263 12.226 17.9761 12.4602C17.7217 12.6664 17.5368 12.8188 17.1244 12.8188C16.8823 12.8188 16.7209 12.7661 16.5752 12.6821L16.6279 12.783C16.7534 13.0329 16.8655 13.2917 16.9664 13.5462C17.019 13.554 17.0717 13.554 17.1233 13.554C17.7968 13.554 18.1566 13.2638 18.4423 13.0295C18.6967 12.8233 18.8817 12.6709 19.2896 12.6709C19.7009 12.6709 19.8869 12.8244 20.1447 13.0295C20.4316 13.2638 20.7858 13.554 21.4604 13.554C22.134 13.554 22.4892 13.2638 22.7795 13.0295C23.0339 12.8233 23.2188 12.6709 23.6313 12.6709C23.833 12.6709 23.9988 12.505 23.9988 12.3033C24.0011 12.0971 23.8353 11.9357 23.6335 11.9357ZM23.6335 15.7541C22.96 15.7541 22.6002 16.0488 22.3144 16.2786C22.06 16.4881 21.8751 16.6372 21.4627 16.6372C21.0514 16.6372 20.8654 16.4881 20.6109 16.2786C20.324 16.0488 19.9654 15.7541 19.2918 15.7541C18.6217 15.7541 18.263 16.0488 17.9761 16.2786C17.8428 16.3873 17.7296 16.4803 17.5929 16.5453C17.6052 16.8076 17.6007 17.0653 17.5884 17.3242C17.9795 17.2312 18.2294 17.0261 18.4435 16.8524C18.6979 16.6462 18.8828 16.4937 19.2907 16.4937C19.702 16.4937 19.8881 16.6473 20.1459 16.8524C20.4328 17.0866 20.7869 17.3769 21.4616 17.3769C22.1351 17.3769 22.4904 17.0866 22.7807 16.8524C23.0351 16.6462 23.22 16.4937 23.6324 16.4937C23.8341 16.4937 24 16.3279 24 16.1262C24.0011 15.9188 23.8353 15.7541 23.6335 15.7541ZM23.6335 19.5745C22.96 19.5745 22.6002 19.8647 22.3144 20.099C22.06 20.3085 21.8751 20.4576 21.4627 20.4576C21.0514 20.4576 20.8654 20.3085 20.6109 20.099C20.324 19.8647 19.9654 19.5745 19.2918 19.5745C18.6183 19.5745 18.263 19.8647 17.9761 20.099C17.7217 20.3085 17.5368 20.4576 17.1244 20.4576C17.0358 20.4576 16.9585 20.4498 16.8902 20.4329C16.7971 20.6672 16.6929 20.8924 16.5752 21.1143C16.7321 21.167 16.9137 21.195 17.1244 21.195C17.7979 21.195 18.1577 20.9048 18.4435 20.6705C18.6979 20.461 18.8828 20.3119 19.2907 20.3119C19.702 20.3119 19.8881 20.461 20.1425 20.6705C20.4327 20.9048 20.788 21.195 21.4616 21.195C22.1351 21.195 22.4904 20.9048 22.7807 20.6705C23.0351 20.461 23.22 20.3119 23.6324 20.3119C23.8341 20.3119 24 20.146 24 19.9443C24.0011 19.7404 23.8353 19.5745 23.6335 19.5745Z" fill="#007DFC"/>
</svg>
