<svg width="27" height="34" viewBox="0 0 27 34" fill="none" xmlns="http://www.w3.org/2000/svg">
<path d="M0 28.3333V25H3.33333V13.3333C3.33333 11.0278 4.02778 8.98611 5.41667 7.20833C6.80556 5.40278 8.61111 4.22222 10.8333 3.66667V2.5C10.8333 1.80555 11.0694 1.22222 11.5417 0.749998C12.0417 0.249999 12.6389 0 13.3333 0C14.0278 0 14.6111 0.249999 15.0833 0.749998C15.5833 1.22222 15.8333 1.80555 15.8333 2.5V3.66667C18.0556 4.22222 19.8611 5.40278 21.25 7.20833C22.6389 8.98611 23.3333 11.0278 23.3333 13.3333V25H26.6667V28.3333H0ZM13.3333 33.3333C12.4167 33.3333 11.625 33.0139 10.9583 32.375C10.3194 31.7083 10 30.9167 10 30H16.6667C16.6667 30.9167 16.3333 31.7083 15.6667 32.375C15.0278 33.0139 14.25 33.3333 13.3333 33.3333ZM6.66667 25H20V13.3333C20 11.5 19.3472 9.93055 18.0417 8.625C16.7361 7.31944 15.1667 6.66667 13.3333 6.66667C11.5 6.66667 9.93056 7.31944 8.625 8.625C7.31944 9.93055 6.66667 11.5 6.66667 13.3333V25Z" fill="#AEAFB1"/>
</svg>
