<svg width="24" height="31" viewBox="0 0 24 31" fill="none" xmlns="http://www.w3.org/2000/svg">
<path d="M14.1791 17.7152V3.34904C14.025 -1.10831 7.59574 -1.12437 7.43618 3.34904V17.7152C1.35314 21.204 3.78643 30.4895 10.805 30.5523C12.8399 30.5496 14.7686 29.6453 16.071 28.0809C17.3735 26.5179 17.915 24.457 17.5495 22.4563C17.1839 20.4541 15.9496 18.7179 14.1793 17.7155L14.1791 17.7152ZM10.8048 28.4067C8.62258 28.3999 6.72805 26.8969 6.22771 24.772C5.72579 22.6484 6.74736 20.4568 8.69772 19.4746C9.24192 19.2032 9.58563 18.6453 9.58291 18.037V3.34932C9.58154 3.02471 9.71112 2.71103 9.94024 2.48187C10.1707 2.25137 10.4831 2.12182 10.8077 2.12182C11.1337 2.12182 11.446 2.25139 11.6765 2.48187C11.9056 2.71101 12.0352 3.02471 12.0338 3.34932V18.037C12.0311 18.644 12.3721 19.2004 12.9135 19.4746C14.8667 20.4539 15.8909 22.647 15.389 24.7734C14.8871 26.8997 12.9898 28.4039 10.8048 28.4067Z" fill="#007DFC"/>
<path d="M10.805 20.4731C9.03465 20.4786 7.60254 21.9161 7.60254 23.6865C7.7553 27.942 13.8629 27.935 14.0127 23.6865C14.0127 21.9134 12.578 20.4759 10.805 20.4731Z" fill="#007DFC"/>
<path d="M1.15516 6.08416H5.61252C5.90575 6.08007 6.14034 5.84139 6.14034 5.54813C6.14034 5.25353 5.90575 5.01486 5.61252 5.01074H1.15516C0.861924 5.01483 0.625977 5.25352 0.625977 5.54813C0.625977 5.84137 0.861931 6.08004 1.15516 6.08416Z" fill="#007DFC"/>
<path d="M6.14844 9.02846C6.14844 8.88661 6.09116 8.74886 5.99159 8.6493C5.89066 8.54838 5.75427 8.49109 5.61244 8.49246H0.534631C0.238663 8.49246 0 8.7325 0 9.02848C0 9.32445 0.238681 9.56312 0.534631 9.56451H5.61244C5.75429 9.56451 5.89067 9.50859 5.99159 9.40766C6.09116 9.30673 6.14844 9.17029 6.14844 9.02846Z" fill="#007DFC"/>
<path d="M2.12879 11.9731C1.83556 11.9772 1.59961 12.2159 1.59961 12.5092C1.59961 12.8024 1.83556 13.0411 2.12879 13.0452H5.61221C5.90544 13.0411 6.14003 12.8024 6.14003 12.5092C6.14003 12.2159 5.90544 11.9773 5.61221 11.9731H2.12879Z" fill="#007DFC"/>
<path d="M6.14829 15.9901C6.14829 15.8483 6.09101 15.7119 5.99144 15.611C5.89051 15.51 5.75412 15.4541 5.61229 15.4541H1.15493C1.01172 15.4528 0.875335 15.51 0.774421 15.6096C0.673494 15.7105 0.616211 15.8469 0.616211 15.9901C0.616211 16.1333 0.673494 16.2697 0.774421 16.3706C0.875349 16.4702 1.01174 16.5275 1.15493 16.5261H5.61229C5.75414 16.5261 5.89052 16.4702 5.99144 16.3693C6.09101 16.2683 6.14829 16.132 6.14829 15.9901Z" fill="#007DFC"/>
<path d="M16.3733 2.98106C16.6666 3.02743 16.9407 2.82831 16.9871 2.53508L17.2026 1.1712C17.2489 0.879324 17.0484 0.603817 16.7566 0.557449C16.4633 0.511077 16.1892 0.711571 16.1428 1.00343L15.9273 2.36731C15.9055 2.50916 15.9396 2.65237 16.0228 2.76692C16.1074 2.88285 16.2328 2.95924 16.3733 2.98106Z" fill="#007DFC"/>
<path d="M18.9599 14.9999C18.8235 14.7407 18.5043 14.6384 18.2425 14.7721C17.9806 14.9044 17.8756 15.2222 18.0038 15.4854L18.6298 16.7157C18.6939 16.8439 18.8058 16.9407 18.9422 16.9857C19.0772 17.0307 19.2258 17.0198 19.3527 16.9544C19.4809 16.8902 19.5764 16.777 19.62 16.6407C19.6637 16.5043 19.6514 16.357 19.5859 16.2301L18.9599 14.9999Z" fill="#007DFC"/>
<path d="M22.9231 12.4177L21.6942 11.7903C21.431 11.6607 21.1132 11.7657 20.9795 12.0276C20.8472 12.2881 20.9481 12.6087 21.2073 12.745C21.6765 13.0164 22.1688 13.2456 22.6789 13.4311C22.9244 13.427 23.1372 13.2578 23.1945 13.0192C23.2518 12.7805 23.1399 12.5323 22.9231 12.4177Z" fill="#007DFC"/>
<path d="M23.3839 7.36601L22.0228 7.58151V7.58287C21.7336 7.63333 21.5386 7.90611 21.5849 8.19526C21.6313 8.4844 21.9014 8.68352 22.1905 8.64124L23.5517 8.42574H23.553C23.8422 8.37664 24.0386 8.10386 23.9936 7.81335C23.9472 7.52284 23.6758 7.32373 23.3839 7.36601Z" fill="#007DFC"/>
<path d="M21.5538 3.00697C21.4529 2.90604 21.3165 2.84876 21.1733 2.85012C21.0315 2.85012 20.8951 2.90604 20.7942 3.00697L19.8203 3.98353C19.7194 4.08446 19.6621 4.22085 19.6621 4.36404C19.6621 4.50589 19.7194 4.64364 19.8203 4.7432C19.9212 4.84412 20.0576 4.90141 20.2008 4.90004C20.3427 4.90004 20.4791 4.84276 20.58 4.74183L21.5538 3.76527C21.7639 3.55523 21.7625 3.21566 21.5538 3.00697Z" fill="#007DFC"/>
<path d="M15.397 4.22363C15.3493 4.22363 15.3002 4.225 15.2524 4.22909V14.1214C16.5754 14.1583 17.8588 13.6632 18.8135 12.7466C19.7696 11.8301 20.3179 10.5698 20.337 9.24562C20.3561 7.92262 19.8446 6.64603 18.9172 5.70236C17.9883 4.75991 16.7213 4.22636 15.397 4.22363Z" fill="#007DFC"/>
</svg>
