<svg width="32" height="32" viewBox="0 0 32 32" fill="none" xmlns="http://www.w3.org/2000/svg">
<circle cx="16" cy="16" r="16" fill="#007DFC"/>
<path d="M17.4529 17.8101V8.23269C17.3502 5.26113 13.064 5.25042 12.9576 8.23269V17.8101C8.90226 20.136 10.5244 26.3263 15.2035 26.3682C16.5601 26.3664 17.8459 25.7635 18.7141 24.7206C19.5825 23.6786 19.9435 22.3047 19.6998 20.9709C19.4561 19.6361 18.6332 18.4786 17.453 17.8103L17.4529 17.8101ZM15.2034 24.9378C13.7485 24.9332 12.4855 23.9312 12.152 22.5146C11.8174 21.0989 12.4984 19.6378 13.7986 18.983C14.1614 18.8021 14.3906 18.4302 14.3888 18.0247V8.23288C14.3879 8.01647 14.4742 7.80735 14.627 7.65458C14.7806 7.50091 14.9889 7.41454 15.2053 7.41454C15.4226 7.41454 15.6308 7.50092 15.7845 7.65458C15.9372 7.80734 16.0236 8.01647 16.0227 8.23288V18.0247C16.0209 18.4293 16.2482 18.8003 16.6092 18.983C17.9112 19.6359 18.5941 21.098 18.2595 22.5156C17.9249 23.9331 16.66 24.9359 15.2034 24.9378Z" fill="white"/>
<path d="M15.2033 19.6487C14.0231 19.6523 13.0684 20.6107 13.0684 21.7909C13.1702 24.6279 17.242 24.6233 17.3418 21.7909C17.3418 20.6089 16.3854 19.6505 15.2033 19.6487Z" fill="white"/>
<path d="M8.77027 10.0562H11.7418C11.9373 10.0535 12.0937 9.89434 12.0937 9.69884C12.0937 9.50243 11.9373 9.34332 11.7418 9.34058H8.77027C8.57478 9.3433 8.41748 9.50242 8.41748 9.69884C8.41748 9.89433 8.57478 10.0534 8.77027 10.0562Z" fill="white"/>
<path d="M12.099 12.019C12.099 11.9244 12.0608 11.8326 11.9944 11.7662C11.9271 11.6989 11.8362 11.6607 11.7416 11.6616H8.35642C8.15911 11.6616 8 11.8217 8 12.019C8 12.2163 8.15912 12.3754 8.35642 12.3763H11.7416C11.8362 12.3763 11.9271 12.3391 11.9944 12.2718C12.0608 12.2045 12.099 12.1135 12.099 12.019Z" fill="white"/>
<path d="M9.4192 13.9822C9.2237 13.9849 9.06641 14.144 9.06641 14.3395C9.06641 14.535 9.22371 14.6941 9.4192 14.6969H11.7415C11.937 14.6942 12.0933 14.535 12.0933 14.3395C12.0933 14.144 11.937 13.9849 11.7415 13.9822H9.4192Z" fill="white"/>
<path d="M12.0992 16.6601C12.0992 16.5655 12.061 16.4746 11.9946 16.4073C11.9273 16.34 11.8364 16.3028 11.7418 16.3028H8.77028C8.67481 16.3018 8.58388 16.34 8.51661 16.4064C8.44932 16.4737 8.41113 16.5646 8.41113 16.6601C8.41113 16.7556 8.44932 16.8465 8.51661 16.9138C8.58389 16.9801 8.67482 17.0183 8.77028 17.0174H11.7418C11.8364 17.0174 11.9273 16.9801 11.9946 16.9128C12.061 16.8456 12.0992 16.7546 12.0992 16.6601Z" fill="white"/>
<path d="M18.9159 7.98737C19.1114 8.01829 19.2941 7.88553 19.325 7.69005L19.4687 6.7808C19.4996 6.58622 19.366 6.40254 19.1714 6.37163C18.9759 6.34072 18.7931 6.47438 18.7622 6.66895L18.6186 7.57821C18.604 7.67277 18.6267 7.76824 18.6822 7.84461C18.7386 7.9219 18.8222 7.97282 18.9159 7.98737Z" fill="white"/>
<path d="M20.6396 15.9998C20.5487 15.8271 20.3359 15.7589 20.1613 15.848C19.9867 15.9362 19.9167 16.1481 20.0022 16.3235L20.4196 17.1437C20.4623 17.2292 20.5369 17.2937 20.6278 17.3237C20.7178 17.3537 20.8169 17.3465 20.9015 17.3028C20.9869 17.2601 21.0506 17.1846 21.0797 17.0937C21.1088 17.0028 21.1006 16.9046 21.057 16.82L20.6396 15.9998Z" fill="white"/>
<path d="M23.2822 14.2785L22.463 13.8602C22.2875 13.7738 22.0756 13.8438 21.9865 14.0184C21.8983 14.1921 21.9656 14.4058 22.1384 14.4967C22.4511 14.6776 22.7794 14.8304 23.1194 14.954C23.2831 14.9513 23.4249 14.8386 23.4631 14.6794C23.5013 14.5203 23.4268 14.3549 23.2822 14.2785Z" fill="white"/>
<path d="M23.5891 10.9108L22.6817 11.0544V11.0553C22.4889 11.089 22.3589 11.2708 22.3898 11.4636C22.4207 11.6563 22.6007 11.7891 22.7935 11.7609L23.701 11.6172H23.7019C23.8946 11.5845 24.0256 11.4027 23.9956 11.209C23.9646 11.0153 23.7837 10.8826 23.5891 10.9108Z" fill="white"/>
<path d="M22.369 8.00473C22.3018 7.93744 22.2108 7.89925 22.1154 7.90016C22.0208 7.90016 21.9299 7.93744 21.8626 8.00473L21.2134 8.65577C21.1461 8.72305 21.1079 8.81398 21.1079 8.90944C21.1079 9.00401 21.1461 9.09584 21.2134 9.16221C21.2807 9.22949 21.3716 9.26768 21.4671 9.26678C21.5616 9.26678 21.6525 9.22859 21.7198 9.1613L22.369 8.51026C22.5091 8.37024 22.5082 8.14386 22.369 8.00473Z" fill="white"/>
<path d="M18.2644 8.81567C18.2325 8.81567 18.1998 8.81658 18.168 8.81931V15.4142C19.05 15.4388 19.9056 15.1087 20.542 14.4977C21.1794 13.8866 21.5449 13.0465 21.5577 12.1637C21.5704 11.2817 21.2294 10.4306 20.6111 9.80149C19.9919 9.17319 19.1472 8.81749 18.2644 8.81567Z" fill="white"/>
</svg>
