<svg width="34" height="34" viewBox="0 0 34 34" fill="none" xmlns="http://www.w3.org/2000/svg">
<path d="M6.41667 25.1667C7.83333 24.0833 9.41667 23.2292 11.1667 22.6042C12.9167 21.9792 14.75 21.6667 16.6667 21.6667C18.5833 21.6667 20.4167 21.9792 22.1667 22.6042C23.9167 23.2292 25.5 24.0833 26.9167 25.1667C27.8889 24.0278 28.6458 22.7361 29.1875 21.2917C29.7292 19.8472 30 18.3056 30 16.6667C30 12.9722 28.7014 9.82639 26.1042 7.22917C23.5069 4.63194 20.3611 3.33333 16.6667 3.33333C12.9722 3.33333 9.82639 4.63194 7.22917 7.22917C4.63194 9.82639 3.33333 12.9722 3.33333 16.6667C3.33333 18.3056 3.60417 19.8472 4.14583 21.2917C4.6875 22.7361 5.44444 24.0278 6.41667 25.1667ZM16.6667 18.3333C15.0278 18.3333 13.6458 17.7708 12.5208 16.6458C11.3958 15.5208 10.8333 14.1389 10.8333 12.5C10.8333 10.8611 11.3958 9.47917 12.5208 8.35417C13.6458 7.22917 15.0278 6.66667 16.6667 6.66667C18.3056 6.66667 19.6875 7.22917 20.8125 8.35417C21.9375 9.47917 22.5 10.8611 22.5 12.5C22.5 14.1389 21.9375 15.5208 20.8125 16.6458C19.6875 17.7708 18.3056 18.3333 16.6667 18.3333ZM16.6667 33.3333C14.3611 33.3333 12.1944 32.8958 10.1667 32.0208C8.13889 31.1458 6.375 29.9583 4.875 28.4583C3.375 26.9583 2.1875 25.1944 1.3125 23.1667C0.4375 21.1389 0 18.9722 0 16.6667C0 14.3611 0.4375 12.1944 1.3125 10.1667C2.1875 8.13889 3.375 6.375 4.875 4.875C6.375 3.375 8.13889 2.1875 10.1667 1.3125C12.1944 0.4375 14.3611 0 16.6667 0C18.9722 0 21.1389 0.4375 23.1667 1.3125C25.1944 2.1875 26.9583 3.375 28.4583 4.875C29.9583 6.375 31.1458 8.13889 32.0208 10.1667C32.8958 12.1944 33.3333 14.3611 33.3333 16.6667C33.3333 18.9722 32.8958 21.1389 32.0208 23.1667C31.1458 25.1944 29.9583 26.9583 28.4583 28.4583C26.9583 29.9583 25.1944 31.1458 23.1667 32.0208C21.1389 32.8958 18.9722 33.3333 16.6667 33.3333Z" fill="#007DFC"/>
</svg>
